# xmcd
# 
# Track frame offsets:
#     150
#     23359
#     45463
#     64818
#     84222
#     105549
#     127300
#     145712
#     175362
#     206304
#     225878
#     250957
#     275358
#     306444
#     331757
# 
# Disc length: 4516
# 
# Revision: 3
# Processed by: cddbd v1.5.2PL0 Copyright (c) Steve Scherf et al.
# Submitted via: fre:ac v1.1beta1pre3
# 
DISCID=c011a20f
DTITLE=Kool and The Gang - The Gold Collection CD 2 - Unite
DYEAR=0
DGENRE=R&B
TTITLE0=(Jump Up On The) Rhythm and Ride
TTITLE1=I think I love you
TTITLE2=Love Come Down
TTITLE3=Pretty Little Sexy Miss
TTITLE4=Better Late Than Never
TTITLE5=Heart
TTITLE6=My Search Is Over
TTITLE7=Summer
TTITLE8=Brown
TTITLE9=Give Right Now To You
TTITLE10=The Weight
TTITLE11=Show Us The Way
TTITLE12=Unite
TTITLE13=God Will Find You
TTITLE14=Spatial Relationship
EXTD=
EXTT0=2 CD Deluxe Edition
EXTT1=2 CD Deluxe Edition
EXTT2=2 CD Deluxe Edition
EXTT3=2 CD Deluxe Edition
EXTT4=2 CD Deluxe Edition
EXTT5=2 CD Deluxe Edition
EXTT6=2 CD Deluxe Edition
EXTT7=2 CD Deluxe Edition
EXTT8=2 CD Deluxe Edition
EXTT9=2 CD Deluxe Edition
EXTT10=2 CD Deluxe Edition
EXTT11=2 CD Deluxe Edition
EXTT12=2 CD Deluxe Edition
EXTT13=2 CD Deluxe Edition
EXTT14=2 CD Deluxe Edition
PLAYORDER=
